<svg id="Layer_1" data-name="Layer 1" xmlns="http://www.w3.org/2000/svg" width="227.907" height="45.668" viewBox="0 0 227.907 45.668">
  <g id="Group_7192" data-name="Group 7192">
    <path id="Path_14276" data-name="Path 14276" d="M0,45.83H6.361l4.493,22.2,5.962-22.2H22.91l5.91,22.2,4.535-22.2h6.186L32.558,76.442H25.666L19.7,54.64l-6.045,21.8H6.9Z" transform="translate(0 -31.574)" fill="#fff"/>
    <path id="Path_14277" data-name="Path 14277" d="M163.7,59.311c0,8.586-5.738,16.191-16.549,16.191S130.6,67.894,130.6,59.324c0-8.495,5.738-16.015,16.549-16.015S163.7,50.808,163.7,59.311Zm-27,0c0,5.472,3.605,10.719,10.455,10.719S157.6,64.786,157.6,59.311a10.459,10.459,0,0,0-20.918,0Z" transform="translate(-89.975 -29.838)" fill="#fff"/>
    <path id="Path_14278" data-name="Path 14278" d="M264.752,52.821c-3.7,0-6.246,1.942-6.246,7.643v15.1H250.68V45.056h7.4l.062,6.613c1.346-4,3.835-7.1,8.19-7.1a5.013,5.013,0,0,1,3.639,1.4l-1.463,7.823A7.7,7.7,0,0,0,264.752,52.821Z" transform="translate(-172.702 -30.708)" fill="#fff"/>
    <path id="Path_14279" data-name="Path 14279" d="M321.41,45.83h5.959v13.7l11.2-13.686h7.251l-12.175,14.8,13.039,15.792h-7.611l-11.7-14.412V76.435H321.41Z" transform="translate(-221.431 -31.574)" fill="#fff"/>
    <path id="Path_14280" data-name="Path 14280" d="M515.89,41.54h5.738V73.48H515.89Z" transform="translate(-355.417 -28.619)" fill="#fff"/>
    <path id="Path_14281" data-name="Path 14281" d="M549.92,41.54h5.829V47.5H549.92Zm.047,9.565H555.7V73.48h-5.738Z" transform="translate(-378.861 -28.619)" fill="#fff"/>
    <path id="Path_14282" data-name="Path 14282" d="M596.485,50.2c-4.666,0-10.943,2.4-10.943,9.739,0,7.653,6.181,10.629,11.963,10.629a13.363,13.363,0,0,0,6.675-1.779v5.649a15.126,15.126,0,0,1-7.466,1.6c-7.251,0-17.3-3.733-17.3-15.745,0-12.545,10.809-15.75,17.662-15.75a13.58,13.58,0,0,1,7.466,1.789l-1.474,5.512a12.378,12.378,0,0,0-6.579-1.645Z" transform="translate(-399.177 -30.691)" fill="#fff"/>
    <path id="Path_14283" data-name="Path 14283" d="M685.675,51.879a11.479,11.479,0,0,0-6.407-2.046c-3.512,0-5.425,1.111-5.425,3.335,0,1.645,1.023,2.409,3.067,3.247l4.939,2.09c3.733,1.559,6.094,3.783,6.094,7.963,0,5.738-4,9.476-11.338,9.476a14.739,14.739,0,0,1-8.227-2.312V67.668a14.8,14.8,0,0,0,8.4,2.849c3.158,0,5.071-1.114,5.071-3.515,0-1.645-1.023-2.448-3.294-3.382l-5.244-2.177c-3.1-1.3-5.553-3.338-5.553-7.833,0-5.385,4.5-9.212,11.7-9.212a13.641,13.641,0,0,1,7.6,2Z" transform="translate(-460.036 -30.593)" fill="#fff"/>
    <path id="Path_14284" data-name="Path 14284" d="M425.96,14.007l10.306,12.905L448.919,0,435.535,18.166Z" transform="translate(-293.46)" fill="#f47c19"/>
    <ellipse id="Ellipse_595" data-name="Ellipse 595" cx="2.389" cy="2.489" rx="2.389" ry="2.489" transform="translate(138.358 10.473)" fill="#f47c19"/>
    <path id="Path_14285" data-name="Path 14285" d="M424.3,50.015,421.708,55.3a10.629,10.629,0,0,1,3.941,8.464c0,5.472-3.606,10.719-10.455,10.719S404.74,69.241,404.74,63.767a10.36,10.36,0,0,1,5.394-9.388l-3.6-4.619a15.448,15.448,0,0,0-7.886,14c0,8.586,5.738,16.191,16.549,16.191s16.543-7.6,16.543-16.175A15.54,15.54,0,0,0,424.3,50.015Z" transform="translate(-274.647 -34.281)" fill="#fff"/>
  </g>
</svg>
